<svg width="84" height="84" viewBox="0 0 84 84" fill="none" xmlns="http://www.w3.org/2000/svg">
<path d="M61.9074 82H2V2H49.9259L61.9074 13.8033V82Z" stroke="black" stroke-width="2.5" stroke-linecap="round" stroke-linejoin="round"/>
<path d="M61.9073 13.8033H49.6536V2L61.9073 13.8033Z" stroke="black" stroke-width="2.5" stroke-linecap="round" stroke-linejoin="round"/>
<path d="M46.9305 30.8524H16.9768" stroke="black" stroke-width="2.5" stroke-miterlimit="10"/>
<path d="M46.9305 40.0328H16.9768" stroke="black" stroke-width="2.5" stroke-miterlimit="10"/>
<path d="M46.9305 49.2131H16.9768" stroke="black" stroke-width="2.5" stroke-miterlimit="10"/>
<path d="M46.9305 30.8524H16.9768" stroke="black" stroke-width="2.5" stroke-miterlimit="10"/>
<path d="M46.9305 40.0328H16.9768" stroke="black" stroke-width="2.5" stroke-miterlimit="10"/>
<path d="M46.9305 49.2131H16.9768" stroke="black" stroke-width="2.5" stroke-miterlimit="10"/>
<path d="M45.1822 71.5016L37.48 73.3574L39.4052 65.9383L75.0269 31.6262C75.4062 31.2608 75.8565 30.9709 76.3522 30.7732C76.8478 30.5754 77.379 30.4736 77.9154 30.4736C78.4519 30.4736 78.9831 30.5754 79.4787 30.7732C79.9743 30.9709 80.4246 31.2608 80.8039 31.6262C81.5697 32.364 81.9998 33.3646 81.9998 34.4079C81.9998 35.4511 81.5697 36.4517 80.8039 37.1895L45.1822 71.5016Z" stroke="black" stroke-width="2.5" stroke-linecap="round" stroke-linejoin="round"/>
<path d="M72.7998 33.4753L78.5768 39.0399" stroke="black" stroke-width="2.5" stroke-miterlimit="10"/>
<path d="M41.4844 63.3206L47.2614 68.8851" stroke="black" stroke-width="2.5" stroke-miterlimit="10"/>
</svg>
