<svg width="80" height="80" viewBox="0 0 80 80" fill="none" xmlns="http://www.w3.org/2000/svg">
<path d="M68.3871 11.8439V3.87097C68.3871 1.73677 66.6503 0 64.5161 0H15.4852C13.351 0 11.6129 1.73677 11.6129 3.87097V11.8426C3.87097 19.3858 0 29.3587 0 40C0 62.0568 17.9432 80 40 80C62.0568 80 80 62.0568 80 40C80 29.36 75.8748 19.3871 68.3871 11.8439ZM68.3871 15.6413C68.6981 16.0026 69 16.369 69.2968 16.7406C69.0658 16.9858 68.7639 17.28 68.3871 17.6181V15.6413ZM68.3871 37.4194V20.929C69.4632 20.1355 70.28 19.4103 70.8581 18.8323C74.8826 24.6658 77.1445 31.5045 77.3871 38.7097H68.1497C68.2942 38.3045 68.3871 37.8735 68.3871 37.4194ZM14.1935 3.87097C14.1935 3.15871 14.7729 2.58065 15.4852 2.58065H64.5161C65.2284 2.58065 65.8064 3.15871 65.8064 3.87097V30.9677H14.1935V3.87097ZM14.1935 33.5484H65.8064V37.4194C65.8064 38.1316 65.2284 38.7097 64.5161 38.7097H15.4852C14.7729 38.7097 14.1935 38.1316 14.1935 37.4194V33.5484ZM55.4839 43.871V41.2903H58.0323C58.0052 42.1626 57.9574 43.0245 57.8787 43.871H55.4839ZM57.5587 46.4516C57.1781 48.8994 56.5961 51.2297 55.871 53.4335C51.9187 52.4232 47.1032 51.7226 41.2903 51.6297V46.4516H57.5587ZM24.5161 41.2903V43.871H22.1213C22.0426 43.0245 21.9948 42.1626 21.9677 41.2903H24.5161ZM11.6142 15.6387V17.6181C11.2374 17.28 10.9355 16.9845 10.7045 16.7394C11.0013 16.3677 11.3032 16.0013 11.6142 15.6387ZM9.14065 18.8335C9.71871 19.4116 10.3226 20.1368 11.6129 20.9303V37.4194C11.6129 37.8735 11.7071 38.3045 11.8516 38.7097H2.6129C2.85419 31.5045 5.11613 24.6658 9.14065 18.8335ZM2.6129 41.2903H15.4852H19.3858C19.4103 42.1626 19.4568 43.0232 19.529 43.871H16.7742V46.4516H19.8155C20.2039 49.1639 20.8232 51.7316 21.6039 54.151C14.7019 56.3355 10.8865 59.3987 9.14839 61.1432C5.23871 55.4555 2.86452 48.6387 2.6129 41.2903ZM10.7148 63.2516C12.0374 61.8735 15.5845 58.8039 22.4735 56.6181C26.2877 66.5923 32.6865 73.7161 36.3781 77.24C26.0077 76.24 16.8684 70.9858 10.7148 63.2516ZM38.7097 75.8568C35.391 72.7355 28.8813 65.7432 25.0181 55.8968C28.7277 54.9587 33.2503 54.3019 38.7097 54.2103V75.8568ZM38.7097 51.6297C32.8968 51.7213 28.0813 52.4232 24.129 53.4335C23.4039 51.2297 22.8219 48.8994 22.4413 46.4516H38.7097V51.6297ZM27.0968 43.871V41.2903H52.9032V43.871H27.0968ZM41.2903 75.8568V54.2103C46.7497 54.3006 51.2723 54.9587 54.9819 55.8968C51.1187 65.7432 44.609 72.7355 41.2903 75.8568ZM43.6219 77.2413C47.3148 73.7174 53.7135 66.5935 57.5265 56.6194C64.4155 58.8039 67.9626 61.8748 69.2852 63.2529C63.1316 70.9858 53.9923 76.24 43.6219 77.2413ZM70.8516 61.1432C69.1135 59.3987 65.2981 56.3355 58.3961 54.151C59.1768 51.7303 59.7961 49.1626 60.1845 46.4516H63.2258V43.871H60.471C60.5432 43.0232 60.5884 42.1626 60.6142 41.2903H64.5161H77.3871C77.1368 48.6387 74.7626 55.4555 70.8516 61.1432Z" fill="black"/>
<path d="M47.2233 11.3754L49.124 9.4748L47.2995 7.65029L45.3988 9.55093C44.2182 8.66577 42.8169 8.06448 41.2904 7.84513V5.16125H38.7098V7.84513C37.1833 8.06448 35.782 8.66577 34.6014 9.55093L32.7008 7.65029L30.8762 9.4748L32.7769 11.3754C31.8917 12.5561 31.2904 13.9574 31.0711 15.4838H28.3872V18.0645H31.0711C31.2904 19.5909 31.8917 20.9922 32.7769 22.1729L30.8762 24.0735L32.7008 25.898L34.6014 23.9974C35.782 24.8825 37.1833 25.4825 38.7098 25.7032V28.3871H41.2904V25.7032C42.8169 25.4838 44.2182 24.8825 45.3988 23.9974L47.2995 25.898L49.124 24.0735L47.2233 22.1729C48.1085 20.9922 48.7085 19.5909 48.9291 18.0645H51.613V15.4838H48.9291C48.7098 13.9574 48.1085 12.5561 47.2233 11.3754ZM40.0001 23.2258C36.4427 23.2258 33.5485 20.3316 33.5485 16.7742C33.5485 13.2167 36.4427 10.3225 40.0001 10.3225C43.5575 10.3225 46.4517 13.2167 46.4517 16.7742C46.4517 20.3316 43.5575 23.2258 40.0001 23.2258Z" fill="black"/>
<path d="M40 18.0645C40.7127 18.0645 41.2904 17.4868 41.2904 16.7742C41.2904 16.0616 40.7127 15.4839 40 15.4839C39.2874 15.4839 38.7097 16.0616 38.7097 16.7742C38.7097 17.4868 39.2874 18.0645 40 18.0645Z" fill="black"/>
</svg>
